Error starting ffmpeg -loglevel +timing -y -print_graphs_file "/logs/ffmpeg-directstream-2a47acf3-42be-4466-802b-f9a2f8940477_1graph.txt" -copyts -start_at_zero -f matroska,webm -c:v:0 h264 -noautorotate -i "/media/dropbox/CASTELLANO/Novedades 2024/Algo Embarazada (2025).mkv" -map 0:0 -map 0:1 -sn -c:v:0 copy -c:a:0 copy -metadata:s:a:0 language=eng -disposition:a:0 default -avoid_negative_ts disabled -f mp4 -map_metadata -1 -map_chapters -1 -movflags +empty_moov+frag_keyframe "/transcoding-temp/X0B9564/X0B9564.mp4" 12:26:10.318 ffmpeg version 5.1-emby_2023_06_25 Copyright (c) 2000-2022 the FFmpeg developers and softworkz for Emby LLC 12:26:10.318 built with gcc 10.3.0 (crosstool-NG 1.25.0) 12:26:10.318 Execution Date: 2025-06-25 12:26:10 12:26:12.196 Input #0, matroska,webm, from '/media/dropbox/CASTELLANO/Novedades 2024/Algo Embarazada (2025).mkv': 12:26:12.196 Metadata: 12:26:12.196 encoder : libebml v1.4.5 + libmatroska v1.7.1 12:26:12.196 creation_time : 2025-02-05T09:04:19.000000Z 12:26:12.196 Duration: 01:40:02.24, start: 0.000000, bitrate: 3831 kb/s 12:26:12.196 Stream #0:0: Video: h264 (High), yuv420p(tv, progressive), 1920x1080 [SAR 1:1 DAR 16:9], Level 40, 24 fps, 24 tbr, 1k tbn (default) 12:26:12.196 Metadata: 12:26:12.196 BPS : 2740749 12:26:12.196 DURATION : 01:40:02.215000000 12:26:12.196 NUMBER_OF_FRAMES: 144053 12:26:12.196 NUMBER_OF_BYTES : 2056321133 12:26:12.196 Stream #0:1(eng): Audio: ac3, 44100 Hz, 5.1(side), fltp, 320 kb/s 12:26:12.196 Metadata: 12:26:12.196 BPS : 319999 12:26:12.196 DURATION : 01:40:02.243000000 12:26:12.196 NUMBER_OF_FRAMES: 172330 12:26:12.196 NUMBER_OF_BYTES : 240089686 12:26:12.196 Stream #0:2(spa): Audio: eac3, 48000 Hz, 5.1(side), fltp, 768 kb/s (default) 12:26:12.196 Metadata: 12:26:12.196 title : Castellano 12:26:12.196 BPS : 768000 12:26:12.196 DURATION : 01:40:02.240000000 12:26:12.196 NUMBER_OF_FRAMES: 187570 12:26:12.196 NUMBER_OF_BYTES : 576215040 12:26:12.196 Stream #0:3(eng): Subtitle: subrip 12:26:12.196 Metadata: 12:26:12.196 title : English [SDH] 12:26:12.196 BPS : 84 12:26:12.196 DURATION : 01:37:27.167000000 12:26:12.196 NUMBER_OF_FRAMES: 1933 12:26:12.196 NUMBER_OF_BYTES : 62087 12:26:12.196 Stream #0:4(spa): Subtitle: subrip (default) (forced) 12:26:12.196 Metadata: 12:26:12.196 BPS : 0 12:26:12.196 DURATION : 01:11:09.958000000 12:26:12.196 NUMBER_OF_FRAMES: 5 12:26:12.196 NUMBER_OF_BYTES : 118 12:26:12.196 Stream #0:5(spa): Subtitle: subrip 12:26:12.196 Metadata: 12:26:12.196 BPS : 63 12:26:12.196 DURATION : 01:37:18.333000000 12:26:12.196 NUMBER_OF_FRAMES: 1634 12:26:12.196 NUMBER_OF_BYTES : 45981 12:26:12.197 [mp4 @ 0x17721b40] No meaningful edit list will be written when using empty_moov without delay_moov 12:26:12.197 [mp4 @ 0x17721b40] track 1: codec frame size is not set 12:26:12.197 [mp4 @ 0x17721b40] Cannot write moov atom before AC3 packets. Set the delay_moov flag to fix this. 12:26:12.197 Could not write header for output file #0 (incorrect codec parameters ?): Invalid argument 12:26:12.197 Error initializing output stream 0:1 -- 12:26:12.197 Stream mapping: 12:26:12.197 Stream #0:0 -> #0:0 (copy) 12:26:12.197 Stream #0:1 -> #0:1 (copy) Last message repeated 1 times 12:26:12.197 Execution Date: 2025-06-25 12:26:12 12:26:12.197 EXIT